<?xml version="1.0" encoding="utf-8"?>
<svg version="1.1" xmlns:xlink="http://www.w3.org/1999/xlink" width="20px" height="31px" xmlns="http://www.w3.org/2000/svg">
  <g transform="matrix(1 0 0 1 -820 -283 )">
    <path d="M 19.5052083333334 0.484375  C 19.8350694444446 0.807291666666686  20 1.18969298245617  20 1.63157894736844  L 20 29.3684210526316  C 20 29.8103070175438  19.8350694444446 30.1927083333333  19.5052083333334 30.515625  C 19.1753472222223 30.8385416666667  18.7847222222223 31  18.3333333333334 31  C 17.8819444444446 31  17.4913194444446 30.8385416666667  17.1614583333334 30.515625  L 8.48958333333337 22.0263157894737  L 1.66666666666663 22.0263157894737  C 1.21527777777771 22.0263157894737  0.824652777777715 21.8648574561403  0.494791666666629 21.5419407894737  C 0.164930555555429 21.219024122807  0 20.8366228070175  0 20.3947368421053  L 0 10.6052631578947  C 0 10.1633771929825  0.164930555555429 9.78097587719299  0.494791666666629 9.4580592105263  C 0.824652777777715 9.13514254385967  1.21527777777771 8.9736842105263  1.66666666666663 8.9736842105263  L 8.48958333333337 8.9736842105263  L 17.1614583333334 0.484375  C 17.4913194444446 0.161458333333314  17.8819444444446 0  18.3333333333334 0  C 18.7847222222223 0  19.1753472222223 0.161458333333314  19.5052083333334 0.484375  Z " fill-rule="nonzero" fill="#363636" stroke="none" transform="matrix(1 0 0 1 820 283 )" />
  </g>
</svg>