<?xml version="1.0" encoding="utf-8"?>
<svg version="1.1" xmlns:xlink="http://www.w3.org/1999/xlink" width="37px" height="32px" xmlns="http://www.w3.org/2000/svg">
  <g transform="matrix(1 0 0 1 -1080 -283 )">
    <path d="M 16.6544471153845 2.74542897327709  C 16.9360977564102 3.03047351148618  17.0769230769231 3.3680262541022  17 3.75808720112516  L 17 28.2419127988748  C 17.0769230769231 28.6319737458978  16.9360977564102 28.9695264885138  16.6544471153845 29.2545710267229  C 16.3727964743589 29.539615564932  16.0392628205129 29.6821378340366  15.6538461538462 29.6821378340366  C 15.2684294871794 29.6821378340366  14.9348958333333 29.539615564932  14.6532451923076 29.2545710267229  L 7.24879807692309 21.760900140647  L 1.42307692307691 21.760900140647  C 1.03766025641016 21.760900140647  0.704126602564202 21.6183778715424  0.422475961538566 21.3333333333333  C 0.140825320512931 21.0482887951242  0 20.7107360525082  0 20.3206751054852  L 0 11.6793248945148  C 0 11.2892639474918  0.140825320512931 10.9517112048757  0.422475961538566 10.6666666666667  C 0.704126602564202 10.3816221284576  1.03766025641016 10.239099859353  1.42307692307691 10.239099859353  L 7.24879807692309 10.239099859353  L 14.6532451923076 2.74542897327709  C 14.9348958333333 2.46038443506797  15.2684294871794 2.31786216596345  15.6538461538462 2.31786216596345  C 16.0392628205129 2.31786216596345  16.3727964743589 2.46038443506797  16.6544471153845 2.74542897327709  Z M 24.6703725961538 12.8045007032349  C 25.3003806089744 13.7946554149086  25.6153846153845 14.8598218471636  25.6153846153845 16  C 25.6153846153845 17.1401781528364  25.3003806089744 18.2015939990624  24.6703725961538 19.1842475386779  C 24.0403645833333 20.1669010782935  23.206530448718 20.868260665729  22.1688701923076 21.2883263009845  C 22.0206330128206 21.3633380215659  21.8353365384614 21.4008438818565  21.6129807692307 21.4008438818565  C 21.2275641025642 21.4008438818565  20.894030448718 21.2620721987811  20.6123798076924 20.9845288326301  C 20.3307291666667 20.7069854664791  20.1899038461538 20.365682137834  20.1899038461538 19.9606188466948  C 20.1899038461538 19.6455696202532  20.2788461538462 19.3792780121894  20.4567307692307 19.1617440225035  C 20.6346153846155 18.9442100328176  20.8495592948718 18.7566807313643  21.1015625 18.5991561181435  C 21.3535657051282 18.4416315049226  21.6055689102564 18.2691045475856  21.8575721153845 18.0815752461322  C 22.1095753205129 17.8940459446789  22.3245192307693 17.624003750586  22.5024038461538 17.2714486638537  C 22.6802884615386 16.9188935771214  22.7692307692307 16.4950773558369  22.7692307692307 16  C 22.7692307692307 15.5049226441631  22.6802884615386 15.0811064228786  22.5024038461538 14.7285513361463  C 22.3245192307693 14.375996249414  22.1095753205129 14.1059540553211  21.8575721153845 13.9184247538678  C 21.6055689102564 13.7308954524144  21.3535657051282 13.5583684950774  21.1015625 13.4008438818565  C 20.8495592948718 13.2433192686357  20.6346153846155 13.0557899671824  20.4567307692307 12.8382559774965  C 20.2788461538462 12.6207219878106  20.1899038461538 12.3544303797468  20.1899038461538 12.0393811533052  C 20.1899038461538 11.634317862166  20.3307291666667 11.2930145335209  20.6123798076924 11.0154711673699  C 20.894030448718 10.7379278012189  21.2275641025642 10.5991561181435  21.6129807692307 10.5991561181435  C 21.8353365384614 10.5991561181435  22.0206330128206 10.6366619784341  22.1688701923076 10.7116736990155  C 23.206530448718 11.1167369901547  24.0403645833333 11.8143459915612  24.6703725961538 12.8045007032349  Z M 29.4176682692307 9.64275668073137  C 30.6776842948718 11.5855602437881  31.3076923076924 13.704641350211  31.3076923076924 16  C 31.3076923076924 18.295358649789  30.6776842948718 20.4144397562119  29.4176682692307 22.3572433192686  C 28.1576522435898 24.3000468823254  26.4899839743589 25.7140178152836  24.4146634615386 26.5991561181435  C 24.2219551282051 26.6741678387248  24.0366586538462 26.7116736990155  23.8587740384614 26.7116736990155  C 23.4585336538462 26.7116736990155  23.1175881410256 26.5691514299109  22.8359375 26.2841068917018  C 22.5542868589744 25.9990623534927  22.4134615384614 25.6615096108767  22.4134615384614 25.2714486638537  C 22.4134615384614 24.6863572433193  22.7025240384614 24.2437880918894  23.2806490384614 23.943741209564  C 24.1107772435898 23.5086732301922  24.6740785256411 23.1786216596343  24.9705528846155 22.9535864978903  C 26.0675080128206 22.1434599156118  26.9235777243589 21.1270511017347  27.5387620192307 19.9043600562588  C 28.1539463141025 18.6816690107829  28.4615384615386 17.3802156586967  28.4615384615386 16  C 28.4615384615386 14.6197843413033  28.1539463141025 13.3183309892171  27.5387620192307 12.0956399437412  C 26.9235777243589 10.8729488982653  26.0675080128206 9.8565400843882  24.9705528846155 9.04641350210972  C 24.6740785256411 8.8213783403657  24.1107772435898 8.49132676980778  23.2806490384614 8.056258790436  C 22.7025240384614 7.75621190811063  22.4134615384614 7.31364275668074  22.4134615384614 6.72855133614627  C 22.4134615384614 6.33849038912331  22.5542868589744 6.00093764650725  22.8359375 5.71589310829816  C 23.1175881410256 5.43084857008907  23.4511217948718 5.28832630098452  23.8365384615386 5.28832630098452  C 24.0292467948718 5.28832630098452  24.2219551282051 5.3258321612752  24.4146634615386 5.40084388185653  C 26.4899839743589 6.28598218471637  28.1576522435898 7.69995311767462  29.4176682692307 9.64275668073137  Z M 34.1760817307693 6.49226441631504  C 36.0586939102564 9.38021565869667  37 12.5494608532583  37 16  C 37 19.4505391467417  36.0586939102564 22.6197843413033  34.1760817307693 25.507735583685  C 32.293469551282 28.3956868260666  29.7882612179487 30.5222691045476  26.6604567307693 31.887482419128  C 26.4677483974358 31.9624941397093  26.2750400641025 32  26.0823317307693 32  C 25.6969150641025 32  25.3633814102564 31.8574777308955  25.0817307692307 31.5724331926864  C 24.8000801282051 31.2873886544773  24.6592548076924 30.9498359118612  24.6592548076924 30.5597749648383  C 24.6592548076924 30.0196905766526  24.9483173076924 29.5771214252227  25.5264423076924 29.2320675105485  C 25.6302083333333 29.1720581340834  25.7969751602564 29.093295827473  26.0267427884614 28.9957805907173  C 26.2565104166667 28.8982653539616  26.4232772435898 28.8195030473512  26.5270432692307 28.7594936708861  C 27.2089342948718 28.3844350679794  27.8167067307693 28.0018752930145  28.3503605769231 27.6118143459915  C 30.1736778846155 26.2466010314112  31.5967548076924 24.5438349742147  32.6195913461538 22.5035161744023  C 33.6424278846155 20.4631973745898  34.1538461538462 18.295358649789  34.1538461538462 16  C 34.1538461538462 13.704641350211  33.6424278846155 11.5368026254102  32.6195913461538 9.49648382559775  C 31.5967548076924 7.45616502578528  30.1736778846155 5.75339896858884  28.3503605769231 4.38818565400845  C 27.8167067307693 3.99812470698546  27.2089342948718 3.61556493202062  26.5270432692307 3.24050632911391  C 26.4232772435898 3.18049695264884  26.2565104166667 3.10173464603844  26.0267427884614 3.00421940928271  C 25.7969751602564 2.90670417252696  25.6302083333333 2.82794186591656  25.5264423076924 2.76793248945148  C 24.9483173076924 2.42287857477731  24.6592548076924 1.98030942334739  24.6592548076924 1.44022503516175  C 24.6592548076924 1.05016408813876  24.8000801282051 0.712611345522731  25.0817307692307 0.427566807313639  C 25.3633814102564 0.142522269104546  25.6969150641025 0  26.0823317307693 0  C 26.2750400641025 0  26.4677483974358 0.037505860290679  26.6604567307693 0.112517580872009  C 29.7882612179487 1.4777308954524  32.293469551282 3.60431317393343  34.1760817307693 6.49226441631504  Z " fill-rule="nonzero" fill="#363636" stroke="none" transform="matrix(1 0 0 1 1080 283 )" />
  </g>
</svg>