<?xml version="1.0" encoding="utf-8"?>
<svg version="1.1" xmlns:xlink="http://www.w3.org/1999/xlink" width="14px" height="32px" xmlns="http://www.w3.org/2000/svg">
  <g transform="matrix(1 0 0 1 -481 -554 )">
    <path d="M 13.8363636363636 7.2962962962963  C 13.9939393939395 7.49382716049388  14.0242424242424 7.70987654320993  13.9272727272727 7.94444444444446  C 13.8181818181818 8.1790123456791  13.6424242424243 8.2962962962963  13.4 8.2962962962963  L 9.32727272727277 8.2962962962963  L 9.32727272727277 31.4074074074075  C 9.32727272727277 31.5802469135803  9.27272727272737 31.7222222222221  9.16363636363633 31.8333333333334  C 9.0545454545454 31.9444444444445  8.91515151515148 32  8.74545454545444 32  L 5.25454545454556 32  C 5.08484848484852 32  4.9454545454546 31.9444444444445  4.83636363636367 31.8333333333334  C 4.72727272727263 31.7222222222221  4.67272727272723 31.5802469135803  4.67272727272723 31.4074074074075  L 4.67272727272723 8.2962962962963  L 0.600000000000023 8.2962962962963  C 0.345454545454459 8.2962962962963  0.169696969696929 8.1790123456791  0.0727272727273203 7.94444444444446  C -0.0242424242424022 7.70987654320993  0.00606060606048686 7.49382716049388  0.163636363636442 7.2962962962963  L 6.5272727272727 0.185185185185219  C 6.64848484848483 0.0617283950616638  6.78787878787887 0  6.9454545454546 0  C 7.11515151515153 0  7.26060606060605 0.0617283950616638  7.38181818181817 0.185185185185219  L 13.8363636363636 7.2962962962963  Z " fill-rule="nonzero" fill="#000000" stroke="none" transform="matrix(1 0 0 1 481 554 )" />
  </g>
</svg>