<?xml version="1.0" encoding="utf-8"?>
<svg version="1.1" xmlns:xlink="http://www.w3.org/1999/xlink" width="9px" height="15px" xmlns="http://www.w3.org/2000/svg">
  <g transform="matrix(1 0 0 1 -549 -249 )">
    <path d="M 8.84536082474233 7.15430861723445  C 8.94845360824741 7.25450901803606  9 7.36973947895785  9 7.5  C 9 7.63026052104209  8.94845360824741 7.74549098196394  8.84536082474233 7.84569138276555  L 1.63917525773195 14.8496993987976  C 1.53608247422687 14.9498997995992  1.41752577319596 15  1.28350515463922 15  C 1.14948453608247 15  1.03092783505156 14.9498997995992  0.927835051546367 14.8496993987976  L 0.154639175257671 14.0981963927856  C 0.0515463917525949 13.9979959919839  0 13.8827655310621  0 13.75250501002  C 0 13.622244488978  0.0515463917525949 13.5070140280561  0.154639175257671 13.4068136272545  L 6.23195876288662 7.5  L 0.154639175257671 1.59318637274549  C 0.0515463917525949 1.49298597194388  0 1.37775551102203  0 1.24749498998  C 0 1.11723446893785  0.0515463917525949 1.002004008016  0.154639175257671 0.901803607214447  L 0.927835051546367 0.150300601202389  C 1.03092783505156 0.0501002004007773  1.14948453608247 0  1.28350515463922 0  C 1.41752577319596 0  1.53608247422687 0.0501002004007773  1.63917525773195 0.150300601202389  L 8.84536082474233 7.15430861723445  Z " fill-rule="nonzero" fill="#999999" stroke="none" transform="matrix(1 0 0 1 549 249 )" />
  </g>
</svg>