<?xml version="1.0" encoding="utf-8"?>
<svg version="1.1" xmlns:xlink="http://www.w3.org/1999/xlink" width="11px" height="18px" xmlns="http://www.w3.org/2000/svg">
  <g transform="matrix(1 0 0 1 -1069 -468 )">
    <path d="M 10.810996563574 8.58517034068132  C 10.9369988545245 8.70541082164323  11 8.84368737474938  11 9  C 11 9.15631262525051  10.9369988545245 9.29458917835677  10.810996563574 9.41482965931868  L 2.00343642611688 17.8196392785571  C 1.87743413516614 17.939879759519  1.7325315005728 18  1.56872852233687 18  C 1.40492554410071 18  1.26002290950737 17.939879759519  1.13402061855663 17.8196392785571  L 0.189003436425992 16.9178356713427  C 0.0630011454754822 16.7975951903808  0 16.6593186372746  0 16.503006012024  C 0 16.3466933867736  0.0630011454754822 16.2084168336673  0.189003436425992 16.0881763527054  L 7.6168384879727 9  L 0.189003436425992 1.91182364729457  C 0.0630011454754822 1.79158316633266  0 1.65330661322639  0 1.496993987976  C 0 1.34068136272538  0.0630011454754822 1.20240480961922  0.189003436425992 1.08216432865731  L 1.13402061855663 0.180360721442867  C 1.26002290950737 0.0601202404809555  1.40492554410071 0  1.56872852233687 0  C 1.7325315005728 0  1.87743413516614 0.0601202404809555  2.00343642611688 0.180360721442867  L 10.810996563574 8.58517034068132  Z " fill-rule="nonzero" fill="#000000" stroke="none" transform="matrix(1 0 0 1 1069 468 )" />
  </g>
</svg>