<?xml version="1.0" encoding="utf-8"?>
<svg version="1.1" xmlns:xlink="http://www.w3.org/1999/xlink" width="19px" height="20px" xmlns="http://www.w3.org/2000/svg">
  <g transform="matrix(1 0 0 1 -1036 -226 )">
    <path d="M 9.5 19.1071428571429  C 9.62179487179492 19.1071428571429  9.68269230769226 19.047619047619  9.68269230769226 18.9285714285714  C 9.68269230769226 18.8095238095239  9.62179487179492 18.75  9.5 18.75  C 9.05088141025635 18.75  8.6645633012821 18.5918898809524  8.34104567307691 18.2756696428571  C 8.01752804487171 17.9594494047619  7.85576923076928 17.5818452380953  7.85576923076928 17.1428571428571  C 7.85576923076928 17.0238095238095  7.79487179487171 16.9642857142857  7.67307692307691 16.9642857142857  C 7.5512820512821 16.9642857142857  7.49038461538464 17.0238095238095  7.49038461538464 17.1428571428571  C 7.49038461538464 17.6860119047619  7.68639823717956 18.149181547619  8.07842548076928 18.5323660714286  C 8.47045272435901 18.9155505952381  8.94431089743603 19.1071428571429  9.5 19.1071428571429  Z M 17.9609375 14.7321428571429  C 18.2730368589744 15.0744047619047  18.619391025641 15.4017857142857  19 15.7142857142857  C 19 16.1011904761905  18.8553685897436 16.4360119047619  18.5661057692307 16.71875  C 18.2768429487179 17.0014880952381  17.9342948717949 17.1428571428571  17.5384615384615 17.1428571428571  L 12.4230769230769 17.1428571428571  C 12.4230769230769 17.9315476190476  12.1376201923077 18.6049107142857  11.5667067307693 19.1629464285714  C 10.9957932692307 19.7209821428571  10.306891025641 20  9.5 20  C 8.69310897435901 20  8.00420673076928 19.7209821428571  7.43329326923072 19.1629464285714  C 6.86237980769226 18.6049107142857  6.57692307692309 17.9315476190476  6.57692307692309 17.1428571428571  L 1.46153846153845 17.1428571428571  C 1.06570512820508 17.1428571428571  0.723157051282101 17.0014880952381  0.433894230769283 16.71875  C 0.144631410256352 16.4360119047619  0 16.1011904761905  0 15.7142857142857  C 0.380608974359006 15.4017857142857  0.726963141025635 15.0744047619047  1.0390625 14.7321428571429  C 1.35116185897436 14.389880952381  1.67467948717956 13.9453125  2.00961538461536 13.3984375  C 2.34455128205138 12.8515625  2.62810496794862 12.2619047619047  2.86027644230774 11.6294642857143  C 3.09244791666674 10.9970238095239  3.28275240384608 10.2306547619047  3.43118990384608 9.33035714285714  C 3.57962740384608 8.43005952380955  3.65384615384608 7.46279761904759  3.65384615384608 6.42857142857144  C 3.65384615384608 5.29761904761904  4.09915865384608 4.24665178571431  4.98978365384608 3.27566964285714  C 5.88040865384608 2.3046875  7.04887820512829 1.71502976190473  8.49519230769226 1.50669642857144  C 8.43429487179492 1.36532738095241  8.40384615384608 1.2202380952381  8.40384615384608 1.07142857142856  C 8.40384615384608 0.773809523809547  8.51041666666674 0.520833333333286  8.72355769230774 0.3125  C 8.93669871794862 0.104166666666714  9.19551282051282 0  9.5 0  C 9.80448717948718 0  10.0633012820514 0.104166666666714  10.2764423076923 0.3125  C 10.4895833333333 0.520833333333286  10.5961538461539 0.773809523809547  10.5961538461539 1.07142857142856  C 10.5961538461539 1.2202380952381  10.5657051282051 1.36532738095241  10.5048076923077 1.50669642857144  C 11.9511217948717 1.71502976190473  13.1195913461539 2.3046875  14.0102163461539 3.27566964285714  C 14.9008413461539 4.24665178571431  15.3461538461539 5.29761904761904  15.3461538461539 6.42857142857144  C 15.3461538461539 7.46279761904759  15.4203725961539 8.43005952380955  15.5688100961539 9.33035714285714  C 15.7172475961539 10.2306547619047  15.9075520833333 10.9970238095239  16.1397235576923 11.6294642857143  C 16.3718950320514 12.2619047619047  16.6554487179486 12.8515625  16.9903846153846 13.3984375  C 17.3253205128204 13.9453125  17.6488381410256 14.389880952381  17.9609375 14.7321428571429  Z " fill-rule="nonzero" fill="#000000" stroke="none" transform="matrix(1 0 0 1 1036 226 )" />
  </g>
</svg>