<?xml version="1.0" encoding="utf-8"?>
<svg version="1.1" xmlns:xlink="http://www.w3.org/1999/xlink" width="13px" height="24px" xmlns="http://www.w3.org/2000/svg">
  <g transform="matrix(1 0 0 1 -789 -200 )">
    <path d="M 12.7766323024055 1.4428857715431  C 12.9255441008019 1.60320641282564  13 1.7875751503006  13 1.99599198396791  C 13 2.20440881763528  12.9255441008019 2.38877755511024  12.7766323024055 2.54909819639278  L 3.99828178694156 12  L 12.7766323024055 21.4509018036072  C 12.9255441008019 21.6112224448898  13 21.7955911823647  13 22.0040080160321  C 13 22.2124248496994  12.9255441008019 22.3967935871744  12.7766323024055 22.5571142284569  L 11.659793814433 23.7595190380761  C 11.5108820160367 23.9198396793587  11.3396334478808 24  11.1460481099657 24  C 10.9524627720505 24  10.7812142038947 23.9198396793587  10.6323024054983 23.7595190380761  L 0.22336769759454 12.5531062124249  C 0.0744558991981421 12.3927855711423  0 12.2084168336673  0 12  C 0 11.7915831663327  0.0744558991981421 11.6072144288577  0.22336769759454 11.4468937875751  L 10.6323024054983 0.240480961923851  C 10.7812142038947 0.0801603206412835  10.9524627720505 0  11.1460481099657 0  C 11.3396334478808 0  11.5108820160367 0.0801603206412835  11.659793814433 0.240480961923851  L 12.7766323024055 1.4428857715431  Z " fill-rule="nonzero" fill="#666666" stroke="none" transform="matrix(1 0 0 1 789 200 )" />
  </g>
</svg>